ffmpeg started on 2025-05-29 at 15:59:46
Report written to "D:\Convert\FFMetrics\reports\ssim_report-6.txt"
Log level: 32
Command line:
ffmpeg -hide_banner -nostdin -i "G:\\\xc0\xed\xe8\xec\xe5\\\xce\xed\xe3\xee\xe8\xed\xe3\xe8\\!_36_\xce\xf1\xe5\xed\xfc_2024\\JamClub\\\xd0\xe0\xed\xec\xe0 1_2\\[JamClub] Ranma 1_2 - 08 [1080p]_HEVC.mkv" -i "G:\\\xc0\xed\xe8\xec\xe5\\\xce\xed\xe3\xee\xe8\xed\xe3\xe8\\!_36_\xce\xf1\xe5\xed\xfc_2024\\JamClub\\\xd0\xe0\xed\xec\xe0 1_2\\[JamClub] Ranma 1_2 - 08 [1080p].mp4" -lavfi "[0:v]settb=AVTB,setpts=PTS-STARTPTS,format=pix_fmts=yuv420p10,fps=24000/1001,scale=1920:1080:flags=bicubic[main];[1:v]settb=AVTB,setpts=PTS-STARTPTS,format=pix_fmts=yuv420p,fps=24000/1001,scale=1920:1080:flags=bicubic[ref];[main][ref]ssim=eof_action=endall:stats_file='D\\:/Convert/FFMetrics/logs/ssim_logfile-6.txt'" -f null -
Input #0, matroska,webm, from 'G:\Аниме\Онгоинги\!_36_Осень_2024\JamClub\Ранма 1_2\[JamClub] Ranma 1_2 - 08 [1080p]_HEVC.mkv':
  Metadata:
    COMPATIBLE_BRANDS: isomiso2avc1mp41
    MAJOR_BRAND     : isom
    MINOR_VERSION   : 512
    ENCODER         : Lavf61.7.100
  Duration: 00:24:54.47, start: -0.001000, bitrate: 2069 kb/s
  Stream #0:0: Video: hevc (Main 10), yuv420p10le(tv, bt709, progressive), 1920x1080 [SAR 1:1 DAR 16:9], 23.98 fps, 23.98 tbr, 1k tbn (default)
      Metadata:
        HANDLER_NAME    : VideoHandler
        VENDOR_ID       : [0][0][0][0]
        ENCODER         : Lavc61.19.100 libx265
        BPS             : 1884897
        DURATION        : 00:24:54.367708333
        NUMBER_OF_FRAMES: 35829
        NUMBER_OF_BYTES : 352091169
        _STATISTICS_WRITING_APP: mkvpropedit v66.0.0 ('Josie') 64-bit
        _STATISTICS_WRITING_DATE_UTC: 2025-05-29 08:10:03
        _STATISTICS_TAGS: BPS DURATION NUMBER_OF_FRAMES NUMBER_OF_BYTES
  Stream #0:1(eng): Audio: aac (LC), 48000 Hz, stereo, fltp (default)
      Metadata:
        HANDLER_NAME    : SoundHandler
        VENDOR_ID       : [0][0][0][0]
        ENCODER         : Lavc61.19.100 aac
        BPS             : 180803
        DURATION        : 00:24:54.424000000
        NUMBER_OF_FRAMES: 70052
        NUMBER_OF_BYTES : 33774661
        _STATISTICS_WRITING_APP: mkvpropedit v66.0.0 ('Josie') 64-bit
        _STATISTICS_WRITING_DATE_UTC: 2025-05-29 08:10:03
        _STATISTICS_TAGS: BPS DURATION NUMBER_OF_FRAMES NUMBER_OF_BYTES
Input #1, mov,mp4,m4a,3gp,3g2,mj2, from 'G:\Аниме\Онгоинги\!_36_Осень_2024\JamClub\Ранма 1_2\[JamClub] Ranma 1_2 - 08 [1080p].mp4':
  Metadata:
    major_brand     : isom
    minor_version   : 512
    compatible_brands: isomiso2avc1mp41
    encoder         : Lavf60.16.100
  Duration: 00:24:54.44, start: 0.000000, bitrate: 4313 kb/s
  Stream #1:0[0x1](und): Video: h264 (High) (avc1 / 0x31637661), yuv420p(progressive), 1920x1080 [SAR 1:1 DAR 16:9], 4115 kb/s, 23.98 fps, 23.98 tbr, 90k tbn (default)
      Metadata:
        handler_name    : VideoHandler
        vendor_id       : [0][0][0][0]
  Stream #1:1[0x2](eng): Audio: aac (LC) (mp4a / 0x6134706D), 48000 Hz, stereo, fltp, 191 kb/s (default)
      Metadata:
        handler_name    : SoundHandler
        vendor_id       : [0][0][0][0]
Stream mapping:
  Stream #0:0 (hevc) -> settb:default
  Stream #1:0 (h264) -> settb:default
  ssim:default -> Stream #0:0 (wrapped_avframe)
  Stream #0:1 -> #0:1 (aac (native) -> pcm_s16le (native))
Output #0, null, to 'pipe:':
  Metadata:
    COMPATIBLE_BRANDS: isomiso2avc1mp41
    MAJOR_BRAND     : isom
    MINOR_VERSION   : 512
    encoder         : Lavf61.7.100
  Stream #0:0: Video: wrapped_avframe, yuv420p10le(tv, bt709, progressive), 1920x1080 [SAR 1:1 DAR 16:9], q=2-31, 200 kb/s, 23.98 fps, 23.98 tbn
      Metadata:
        encoder         : Lavc61.19.100 wrapped_avframe
  Stream #0:1(eng): Audio: pcm_s16le, 48000 Hz, stereo, s16, 1536 kb/s (default)
      Metadata:
        HANDLER_NAME    : SoundHandler
        VENDOR_ID       : [0][0][0][0]
        _STATISTICS_TAGS: BPS DURATION NUMBER_OF_FRAMES NUMBER_OF_BYTES
        BPS             : 180803
        DURATION        : 00:24:54.424000000
        NUMBER_OF_FRAMES: 70052
        NUMBER_OF_BYTES : 33774661
        _STATISTICS_WRITING_APP: mkvpropedit v66.0.0 ('Josie') 64-bit
        _STATISTICS_WRITING_DATE_UTC: 2025-05-29 08:10:03
        encoder         : Lavc61.19.100 pcm_s16le
frame=  115 fps=0.0 q=-0.0 size=N/A time=00:00:04.79 bitrate=N/A speed=9.24x    frame=  272 fps=264 q=-0.0 size=N/A time=00:00:11.38 bitrate=N/A speed=11.1x    frame=  474 fps=305 q=-0.0 size=N/A time=00:00:19.76 bitrate=N/A speed=12.7x    frame=  716 fps=348 q=-0.0 size=N/A time=00:00:29.86 bitrate=N/A speed=14.5x    frame=  976 fps=378 q=-0.0 size=N/A time=00:00:40.70 bitrate=N/A speed=15.8x    frame= 1223 fps=394 q=-0.0 size=N/A time=00:00:51.00 bitrate=N/A speed=16.5x    frame= 1456 fps=403 q=-0.0 size=N/A time=00:01:00.72 bitrate=N/A speed=16.8x    frame= 1688 fps=409 q=-0.0 size=N/A time=00:01:10.40 bitrate=N/A speed=  17x    frame= 1842 fps=397 q=-0.0 size=N/A time=00:01:16.82 bitrate=N/A speed=16.6x    frame= 1995 fps=387 q=-0.0 size=N/A time=00:01:23.20 bitrate=N/A speed=16.1x    frame= 2177 fps=384 q=-0.0 size=N/A time=00:01:30.79 bitrate=N/A speed=  16x    frame= 2345 fps=379 q=-0.0 size=N/A time=00:01:37.80 bitrate=N/A speed=15.8x    frame= 2509 fps=374 q=-0.0 size=N/A time=00:01:44.64 bitrate=N/A speed=15.6x    frame= 2651 fps=368 q=-0.0 size=N/A time=00:01:50.56 bitrate=N/A speed=15.3x    frame= 2821 fps=365 q=-0.0 size=N/A time=00:01:57.65 bitrate=N/A speed=15.2x    frame= 2972 fps=360 q=-0.0 size=N/A time=00:02:03.95 bitrate=N/A speed=  15x    frame= 3156 fps=360 q=-0.0 size=N/A time=00:02:11.63 bitrate=N/A speed=  15x    frame= 3274 fps=353 q=-0.0 size=N/A time=00:02:16.55 bitrate=N/A speed=14.7x    frame= 3436 fps=351 q=-0.0 size=N/A time=00:02:23.30 bitrate=N/A speed=14.6x    frame= 3598 fps=349 q=-0.0 size=N/A time=00:02:30.06 bitrate=N/A speed=14.6x    frame= 3800 fps=351 q=-0.0 size=N/A time=00:02:38.49 bitrate=N/A speed=14.6x    frame= 4005 fps=353 q=-0.0 size=N/A time=00:02:47.04 bitrate=N/A speed=14.7x    frame= 4237 fps=357 q=-0.0 size=N/A time=00:02:56.71 bitrate=N/A speed=14.9x    frame= 4503 fps=364 q=-0.0 size=N/A time=00:03:07.81 bitrate=N/A speed=15.2x    frame= 4752 fps=369 q=-0.0 size=N/A time=00:03:18.19 bitrate=N/A speed=15.4x    frame= 4996 fps=373 q=-0.0 size=N/A time=00:03:28.37 bitrate=N/A speed=15.5x    frame= 5222 fps=375 q=-0.0 size=N/A time=00:03:37.80 bitrate=N/A speed=15.6x    frame= 5399 fps=374 q=-0.0 size=N/A time=00:03:45.18 bitrate=N/A speed=15.6x    frame= 5599 fps=375 q=-0.0 size=N/A time=00:03:53.52 bitrate=N/A speed=15.6x    frame= 5847 fps=378 q=-0.0 size=N/A time=00:04:03.86 bitrate=N/A speed=15.8x    frame= 6068 fps=379 q=-0.0 size=N/A time=00:04:13.08 bitrate=N/A speed=15.8x    frame= 6300 fps=382 q=-0.0 size=N/A time=00:04:22.76 bitrate=N/A speed=15.9x    frame= 6488 fps=381 q=-0.0 size=N/A time=00:04:30.60 bitrate=N/A speed=15.9x    frame= 6666 fps=380 q=-0.0 size=N/A time=00:04:38.02 bitrate=N/A speed=15.9x    frame= 6900 fps=382 q=-0.0 size=N/A time=00:04:47.78 bitrate=N/A speed=15.9x    frame= 7119 fps=384 q=-0.0 size=N/A time=00:04:56.92 bitrate=N/A speed=  16x    frame= 7352 fps=385 q=-0.0 size=N/A time=00:05:06.63 bitrate=N/A speed=16.1x    frame= 7587 fps=387 q=-0.0 size=N/A time=00:05:16.44 bitrate=N/A speed=16.2x    frame= 7799 fps=388 q=-0.0 size=N/A time=00:05:25.28 bitrate=N/A speed=16.2x    frame= 8025 fps=389 q=-0.0 size=N/A time=00:05:34.70 bitrate=N/A speed=16.2x    frame= 8234 fps=389 q=-0.0 size=N/A time=00:05:43.42 bitrate=N/A speed=16.2x    frame= 8466 fps=391 q=-0.0 size=N/A time=00:05:53.10 bitrate=N/A speed=16.3x    frame= 8689 fps=392 q=-0.0 size=N/A time=00:06:02.40 bitrate=N/A speed=16.3x    frame= 8885 fps=392 q=-0.0 size=N/A time=00:06:10.57 bitrate=N/A speed=16.3x    frame= 9077 fps=391 q=-0.0 size=N/A time=00:06:18.58 bitrate=N/A speed=16.3x    frame= 9289 fps=392 q=-0.0 size=N/A time=00:06:27.42 bitrate=N/A speed=16.3x    frame= 9525 fps=393 q=-0.0 size=N/A time=00:06:37.27 bitrate=N/A speed=16.4x    frame= 9774 fps=395 q=-0.0 size=N/A time=00:06:47.65 bitrate=N/A speed=16.5x    frame= 9990 fps=395 q=-0.0 size=N/A time=00:06:56.66 bitrate=N/A speed=16.5x    frame=10241 fps=397 q=-0.0 size=N/A time=00:07:07.13 bitrate=N/A speed=16.6x    frame=10481 fps=399 q=-0.0 size=N/A time=00:07:17.14 bitrate=N/A speed=16.6x    frame=10727 fps=400 q=-0.0 size=N/A time=00:07:27.40 bitrate=N/A speed=16.7x    frame=10942 fps=400 q=-0.0 size=N/A time=00:07:36.41 bitrate=N/A speed=16.7x    frame=11193 fps=402 q=-0.0 size=N/A time=00:07:46.84 bitrate=N/A speed=16.8x    frame=11450 fps=404 q=-0.0 size=N/A time=00:07:57.56 bitrate=N/A speed=16.8x    frame=11685 fps=405 q=-0.0 size=N/A time=00:08:07.36 bitrate=N/A speed=16.9x    frame=11912 fps=405 q=-0.0 size=N/A time=00:08:16.82 bitrate=N/A speed=16.9x    frame=12158 fps=406 q=-0.0 size=N/A time=00:08:27.08 bitrate=N/A speed=  17x    frame=12386 fps=407 q=-0.0 size=N/A time=00:08:36.59 bitrate=N/A speed=  17x    frame=12586 fps=407 q=-0.0 size=N/A time=00:08:44.94 bitrate=N/A speed=  17x    frame=12817 fps=407 q=-0.0 size=N/A time=00:08:54.57 bitrate=N/A speed=  17x    frame=13067 fps=409 q=-0.0 size=N/A time=00:09:05.00 bitrate=N/A speed=  17x    frame=13330 fps=410 q=-0.0 size=N/A time=00:09:15.97 bitrate=N/A speed=17.1x    frame=13602 fps=412 q=-0.0 size=N/A time=00:09:27.31 bitrate=N/A speed=17.2x    frame=13837 fps=413 q=-0.0 size=N/A time=00:09:37.11 bitrate=N/A speed=17.2x    frame=13997 fps=411 q=-0.0 size=N/A time=00:09:43.79 bitrate=N/A speed=17.1x    frame=14158 fps=410 q=-0.0 size=N/A time=00:09:50.50 bitrate=N/A speed=17.1x    frame=14384 fps=410 q=-0.0 size=N/A time=00:09:59.93 bitrate=N/A speed=17.1x    frame=14603 fps=410 q=-0.0 size=N/A time=00:10:09.06 bitrate=N/A speed=17.1x    frame=14844 fps=411 q=-0.0 size=N/A time=00:10:19.11 bitrate=N/A speed=17.1x    frame=15074 fps=412 q=-0.0 size=N/A time=00:10:28.71 bitrate=N/A speed=17.2x    frame=15315 fps=412 q=-0.0 size=N/A time=00:10:38.76 bitrate=N/A speed=17.2x    frame=15409 fps=409 q=-0.0 size=N/A time=00:10:42.68 bitrate=N/A speed=17.1x    frame=15598 fps=409 q=-0.0 size=N/A time=00:10:50.56 bitrate=N/A speed=  17x    frame=15834 fps=409 q=-0.0 size=N/A time=00:11:00.40 bitrate=N/A speed=17.1x    frame=16032 fps=409 q=-0.0 size=N/A time=00:11:08.66 bitrate=N/A speed=17.1x    frame=16268 fps=410 q=-0.0 size=N/A time=00:11:18.51 bitrate=N/A speed=17.1x    frame=16467 fps=409 q=-0.0 size=N/A time=00:11:26.81 bitrate=N/A speed=17.1x    frame=16645 fps=408 q=-0.0 size=N/A time=00:11:34.23 bitrate=N/A speed=  17x    frame=16796 fps=407 q=-0.0 size=N/A time=00:11:40.53 bitrate=N/A speed=  17x    frame=16941 fps=405 q=-0.0 size=N/A time=00:11:46.58 bitrate=N/A speed=16.9x    frame=17069 fps=403 q=-0.0 size=N/A time=00:11:51.91 bitrate=N/A speed=16.8x    frame=17209 fps=402 q=-0.0 size=N/A time=00:11:57.75 bitrate=N/A speed=16.8x    frame=17350 fps=400 q=-0.0 size=N/A time=00:12:03.63 bitrate=N/A speed=16.7x    frame=17512 fps=399 q=-0.0 size=N/A time=00:12:10.39 bitrate=N/A speed=16.7x    frame=17680 fps=398 q=-0.0 size=N/A time=00:12:17.40 bitrate=N/A speed=16.6x    frame=17859 fps=398 q=-0.0 size=N/A time=00:12:24.86 bitrate=N/A speed=16.6x    frame=18067 fps=398 q=-0.0 size=N/A time=00:12:33.54 bitrate=N/A speed=16.6x    frame=18278 fps=398 q=-0.0 size=N/A time=00:12:42.34 bitrate=N/A speed=16.6x    frame=18495 fps=398 q=-0.0 size=N/A time=00:12:51.39 bitrate=N/A speed=16.6x    frame=18661 fps=397 q=-0.0 size=N/A time=00:12:58.31 bitrate=N/A speed=16.6x    frame=18812 fps=396 q=-0.0 size=N/A time=00:13:04.61 bitrate=N/A speed=16.5x    frame=19005 fps=396 q=-0.0 size=N/A time=00:13:12.66 bitrate=N/A speed=16.5x    frame=19255 fps=397 q=-0.0 size=N/A time=00:13:23.09 bitrate=N/A speed=16.6x    frame=19461 fps=397 q=-0.0 size=N/A time=00:13:31.68 bitrate=N/A speed=16.6x    frame=19681 fps=397 q=-0.0 size=N/A time=00:13:40.86 bitrate=N/A speed=16.6x    frame=19866 fps=397 q=-0.0 size=N/A time=00:13:48.57 bitrate=N/A speed=16.6x    frame=20061 fps=397 q=-0.0 size=N/A time=00:13:56.71 bitrate=N/A speed=16.5x    frame=20291 fps=397 q=-0.0 size=N/A time=00:14:06.30 bitrate=N/A speed=16.6x    frame=20520 fps=398 q=-0.0 size=N/A time=00:14:15.85 bitrate=N/A speed=16.6x    frame=20727 fps=398 q=-0.0 size=N/A time=00:14:24.48 bitrate=N/A speed=16.6x    frame=20961 fps=398 q=-0.0 size=N/A time=00:14:34.24 bitrate=N/A speed=16.6x    frame=21196 fps=399 q=-0.0 size=N/A time=00:14:44.04 bitrate=N/A speed=16.6x    frame=21425 fps=399 q=-0.0 size=N/A time=00:14:53.60 bitrate=N/A speed=16.7x    frame=21645 fps=400 q=-0.0 size=N/A time=00:15:02.77 bitrate=N/A speed=16.7x    frame=21838 fps=399 q=-0.0 size=N/A time=00:15:10.82 bitrate=N/A speed=16.7x    frame=22034 fps=399 q=-0.0 size=N/A time=00:15:19.00 bitrate=N/A speed=16.6x    frame=22247 fps=399 q=-0.0 size=N/A time=00:15:27.88 bitrate=N/A speed=16.7x    frame=22481 fps=400 q=-0.0 size=N/A time=00:15:37.64 bitrate=N/A speed=16.7x    frame=22670 fps=399 q=-0.0 size=N/A time=00:15:45.52 bitrate=N/A speed=16.7x    frame=22891 fps=400 q=-0.0 size=N/A time=00:15:54.74 bitrate=N/A speed=16.7x    frame=23083 fps=399 q=-0.0 size=N/A time=00:16:02.75 bitrate=N/A speed=16.7x    frame=23337 fps=400 q=-0.0 size=N/A time=00:16:13.34 bitrate=N/A speed=16.7x    frame=23563 fps=401 q=-0.0 size=N/A time=00:16:22.77 bitrate=N/A speed=16.7x    frame=23736 fps=400 q=-0.0 size=N/A time=00:16:29.98 bitrate=N/A speed=16.7x    frame=23932 fps=400 q=-0.0 size=N/A time=00:16:38.16 bitrate=N/A speed=16.7x    frame=24164 fps=400 q=-0.0 size=N/A time=00:16:47.84 bitrate=N/A speed=16.7x    frame=24396 fps=401 q=-0.0 size=N/A time=00:16:57.51 bitrate=N/A speed=16.7x    frame=24650 fps=401 q=-0.0 size=N/A time=00:17:08.11 bitrate=N/A speed=16.7x    frame=24864 fps=402 q=-0.0 size=N/A time=00:17:17.03 bitrate=N/A speed=16.8x    frame=25079 fps=402 q=-0.0 size=N/A time=00:17:26.00 bitrate=N/A speed=16.8x    frame=25316 fps=402 q=-0.0 size=N/A time=00:17:35.88 bitrate=N/A speed=16.8x    frame=25555 fps=403 q=-0.0 size=N/A time=00:17:45.85 bitrate=N/A speed=16.8x    frame=25775 fps=403 q=-0.0 size=N/A time=00:17:55.03 bitrate=N/A speed=16.8x    frame=26007 fps=403 q=-0.0 size=N/A time=00:18:04.70 bitrate=N/A speed=16.8x    frame=26262 fps=404 q=-0.0 size=N/A time=00:18:15.34 bitrate=N/A speed=16.9x    frame=26527 fps=405 q=-0.0 size=N/A time=00:18:26.39 bitrate=N/A speed=16.9x    frame=26771 fps=405 q=-0.0 size=N/A time=00:18:36.57 bitrate=N/A speed=16.9x    frame=27012 fps=406 q=-0.0 size=N/A time=00:18:46.62 bitrate=N/A speed=16.9x    frame=27196 fps=406 q=-0.0 size=N/A time=00:18:54.29 bitrate=N/A speed=16.9x    frame=27415 fps=406 q=-0.0 size=N/A time=00:19:03.43 bitrate=N/A speed=16.9x    frame=27603 fps=405 q=-0.0 size=N/A time=00:19:11.27 bitrate=N/A speed=16.9x    frame=27799 fps=405 q=-0.0 size=N/A time=00:19:19.44 bitrate=N/A speed=16.9x    frame=28040 fps=406 q=-0.0 size=N/A time=00:19:29.50 bitrate=N/A speed=16.9x    frame=28279 fps=406 q=-0.0 size=N/A time=00:19:39.46 bitrate=N/A speed=16.9x    frame=28544 fps=407 q=-0.0 size=N/A time=00:19:50.52 bitrate=N/A speed=  17x    frame=28786 fps=407 q=-0.0 size=N/A time=00:20:00.61 bitrate=N/A speed=  17x    frame=29041 fps=408 q=-0.0 size=N/A time=00:20:11.25 bitrate=N/A speed=  17x    frame=29231 fps=408 q=-0.0 size=N/A time=00:20:19.17 bitrate=N/A speed=  17x    frame=29427 fps=407 q=-0.0 size=N/A time=00:20:27.35 bitrate=N/A speed=  17x    frame=29637 fps=407 q=-0.0 size=N/A time=00:20:36.10 bitrate=N/A speed=  17x    frame=29875 fps=408 q=-0.0 size=N/A time=00:20:46.03 bitrate=N/A speed=  17x    frame=30122 fps=408 q=-0.0 size=N/A time=00:20:56.33 bitrate=N/A speed=  17x    frame=30370 fps=409 q=-0.0 size=N/A time=00:21:06.68 bitrate=N/A speed=17.1x    frame=30620 fps=409 q=-0.0 size=N/A time=00:21:17.10 bitrate=N/A speed=17.1x    frame=30847 fps=410 q=-0.0 size=N/A time=00:21:26.57 bitrate=N/A speed=17.1x    frame=31077 fps=410 q=-0.0 size=N/A time=00:21:36.16 bitrate=N/A speed=17.1x    frame=31263 fps=409 q=-0.0 size=N/A time=00:21:43.92 bitrate=N/A speed=17.1x    frame=31495 fps=410 q=-0.0 size=N/A time=00:21:53.60 bitrate=N/A speed=17.1x    frame=31686 fps=410 q=-0.0 size=N/A time=00:22:01.57 bitrate=N/A speed=17.1x    frame=31863 fps=409 q=-0.0 size=N/A time=00:22:08.95 bitrate=N/A speed=17.1x    frame=32022 fps=408 q=-0.0 size=N/A time=00:22:15.58 bitrate=N/A speed=  17x    frame=32171 fps=408 q=-0.0 size=N/A time=00:22:21.79 bitrate=N/A speed=  17x    frame=32310 fps=407 q=-0.0 size=N/A time=00:22:27.59 bitrate=N/A speed=  17x    frame=32509 fps=407 q=-0.0 size=N/A time=00:22:35.89 bitrate=N/A speed=  17x    frame=32708 fps=406 q=-0.0 size=N/A time=00:22:44.19 bitrate=N/A speed=16.9x    frame=32862 fps=406 q=-0.0 size=N/A time=00:22:50.61 bitrate=N/A speed=16.9x    frame=33044 fps=405 q=-0.0 size=N/A time=00:22:58.21 bitrate=N/A speed=16.9x    frame=33228 fps=405 q=-0.0 size=N/A time=00:23:05.88 bitrate=N/A speed=16.9x    frame=33432 fps=405 q=-0.0 size=N/A time=00:23:14.39 bitrate=N/A speed=16.9x    frame=33631 fps=405 q=-0.0 size=N/A time=00:23:22.69 bitrate=N/A speed=16.9x    frame=33875 fps=405 q=-0.0 size=N/A time=00:23:32.86 bitrate=N/A speed=16.9x    frame=34165 fps=406 q=-0.0 size=N/A time=00:23:44.96 bitrate=N/A speed=16.9x    frame=34448 fps=407 q=-0.0 size=N/A time=00:23:56.76 bitrate=N/A speed=  17x    frame=34716 fps=408 q=-0.0 size=N/A time=00:24:07.94 bitrate=N/A speed=  17x    frame=34997 fps=409 q=-0.0 size=N/A time=00:24:19.66 bitrate=N/A speed=  17x    frame=35281 fps=410 q=-0.0 size=N/A time=00:24:31.51 bitrate=N/A speed=17.1x    frame=35568 fps=410 q=-0.0 size=N/A time=00:24:43.48 bitrate=N/A speed=17.1x    [Parsed_ssim_10 @ 000001933c7857c0] SSIM Y:0.995383 (23.356146) U:0.994055 (22.258771) V:0.993985 (22.207976) All:0.994929 (22.948746)
[out#0/null @ 000001933b2a2f40] video:15395KiB audio:280208KiB subtitle:0KiB other streams:0KiB global headers:0KiB muxing overhead: unknown
frame=35829 fps=411 q=-0.0 Lsize=N/A time=00:24:54.36 bitrate=N/A speed=17.1x    
